<svg width="235" height="73" viewBox="0 0 235 73" fill="none" xmlns="http://www.w3.org/2000/svg">
<path fill-rule="evenodd" clip-rule="evenodd" d="M9.45187 40.7013C9.6884 40.595 9.9573 40.5864 10.2002 40.6772C10.443 40.768 10.6403 40.951 10.749 41.1864C10.8578 41.4218 10.8693 41.6906 10.7811 41.9344C10.6928 42.1782 10.5119 42.3774 10.2777 42.4886L3.27153 45.7378C3.03537 45.8421 2.7677 45.8494 2.52618 45.7582C2.28466 45.6671 2.08862 45.4847 1.98028 45.2503C1.87194 45.016 1.85998 44.7485 1.94696 44.5054C2.03394 44.2624 2.21292 44.0632 2.44533 43.9508L9.45187 40.7013ZM9.86763 21.111L1.0465 24.7264C0.878293 24.7963 0.73273 24.9114 0.625959 25.0589C0.519188 25.2065 0.455383 25.3807 0.441623 25.5624C0.427864 25.744 0.464687 25.9258 0.548009 26.0878C0.631331 26.2497 0.757892 26.3855 0.913651 26.4799C5.53785 29.2547 8.59641 30.9776 11.1882 31.7621L5.99378 33.455C5.80844 33.5158 5.64536 33.6303 5.52528 33.7841C5.4052 33.9378 5.33354 34.1237 5.31942 34.3183C5.3053 34.5128 5.34935 34.7072 5.44598 34.8766C5.5426 35.0461 5.68743 35.1829 5.86206 35.2699C11.2236 37.9137 14.6951 39.6045 17.9246 40.2439L14.4245 41.3843C14.2392 41.4451 14.0761 41.5596 13.956 41.7133C13.8359 41.867 13.7642 42.053 13.7501 42.2475C13.7359 42.4421 13.7799 42.6364 13.8766 42.8059C13.9732 42.9754 14.118 43.1123 14.2926 43.1992C16.233 44.1566 17.9264 44.99 19.4499 45.6922L26.3614 60.8947C26.521 61.2471 26.7484 61.5645 27.0308 61.8288C27.3132 62.0931 27.6449 62.2991 28.0071 62.435C28.3692 62.5709 28.7546 62.634 29.1411 62.6208C29.5277 62.6075 29.9078 62.5181 30.2598 62.3577L84.9707 37.4848C85.3231 37.3253 85.6405 37.0979 85.9048 36.8155C86.1691 36.5331 86.3752 36.2014 86.5111 35.8392C86.647 35.4771 86.7102 35.0917 86.6969 34.7052C86.6837 34.3186 86.5943 33.9385 86.4339 33.5865L72.0881 2.03187C71.9287 1.67971 71.7014 1.36244 71.4192 1.09821C71.1371 0.833985 70.8056 0.62799 70.4437 0.492016C70.0818 0.356041 69.6967 0.292755 69.3104 0.305778C68.924 0.318801 68.544 0.407878 68.1921 0.567912L49.545 9.045L41.9564 5.97678C40.7942 5.50455 39.5433 5.29046 38.2902 5.34935C37.0178 5.41923 35.7672 5.70958 34.5942 6.20747L6.93204 17.5466C6.76323 17.6158 6.61701 17.7307 6.50973 17.8783C6.40244 18.0258 6.33833 18.2004 6.32454 18.3823C6.31076 18.5642 6.34785 18.7464 6.43167 18.9085C6.5155 19.0705 6.64275 19.2061 6.7992 19.3C6.79135 19.3134 9.60953 20.9618 9.86763 21.111ZM7.06191 69.4518C7.17899 69.3946 7.30627 69.3612 7.43635 69.3536C7.56643 69.346 7.69674 69.3642 7.8197 69.4074C7.94266 69.4505 8.05584 69.5176 8.15265 69.6048C8.24947 69.6921 8.328 69.7976 8.38369 69.9154C8.43938 70.0332 8.47113 70.1609 8.47708 70.2911C8.48303 70.4213 8.46307 70.5513 8.41836 70.6737C8.37365 70.7961 8.30507 70.9084 8.21662 71.0041C8.12816 71.0998 8.02158 71.177 7.90307 71.2311L4.69219 72.7472C4.57535 72.8024 4.44877 72.8341 4.31968 72.8404C4.1906 72.8467 4.06153 72.8275 3.93986 72.7839C3.81818 72.7404 3.70628 72.6733 3.61054 72.5865C3.5148 72.4996 3.43709 72.3948 3.38186 72.278C3.32663 72.1611 3.29495 72.0346 3.28864 71.9055C3.28233 71.7764 3.3015 71.6473 3.34507 71.5256C3.38863 71.404 3.45574 71.2921 3.54255 71.1963C3.62937 71.1006 3.73419 71.0229 3.85103 70.9676L7.06191 69.4518ZM21.9796 62.6095C22.2161 62.5032 22.485 62.4945 22.7278 62.5854C22.9707 62.6762 23.1679 62.8592 23.2767 63.0946C23.3855 63.33 23.397 63.5987 23.3087 63.8426C23.2205 64.0864 23.0396 64.2855 22.8054 64.3968L12.3426 69.249C12.1061 69.3552 11.8372 69.3639 11.5943 69.2731C11.3515 69.1822 11.1542 68.9993 11.0455 68.7639C10.9367 68.5285 10.9252 68.2597 11.0134 68.0159C11.1017 67.7721 11.2826 67.5729 11.5168 67.4616L21.9796 62.6095ZM10.7787 53.9447C11.0153 53.8385 11.2841 53.8298 11.527 53.9206C11.7699 54.0115 11.9671 54.1944 12.0759 54.4298C12.1846 54.6652 12.1962 54.934 12.1079 55.1778C12.0197 55.4216 11.8388 55.6208 11.6046 55.7321L4.16159 59.184C4.04402 59.2399 3.91653 59.2719 3.78651 59.2781C3.6565 59.2844 3.52653 59.2648 3.40413 59.2205C3.28174 59.1762 3.16934 59.1081 3.07345 59.02C2.97755 58.932 2.90006 58.8259 2.84547 58.7077C2.79087 58.5895 2.76024 58.4617 2.75537 58.3316C2.75049 58.2016 2.77145 58.0718 2.81705 57.9499C2.86264 57.828 2.93196 57.7163 3.021 57.6213C3.11003 57.5264 3.21701 57.45 3.33575 57.3967L10.7787 53.9447ZM17.2299 50.9517C17.467 50.8422 17.7378 50.8313 17.9829 50.9215C18.2279 51.0116 18.4271 51.1955 18.5366 51.4325C18.6461 51.6695 18.657 51.9404 18.5668 52.1854C18.4767 52.4305 18.2928 52.6297 18.0558 52.7392L14.9988 54.1581C14.8813 54.2132 14.7541 54.2447 14.6244 54.2505C14.4947 54.2563 14.3652 54.2364 14.2432 54.192C14.1212 54.1476 14.0093 54.0795 13.9137 53.9916C13.8182 53.9037 13.741 53.7978 13.6865 53.68C13.632 53.5622 13.6014 53.4347 13.5964 53.305C13.5914 53.1753 13.6121 53.0459 13.6573 52.9242C13.7025 52.8025 13.7713 52.691 13.8597 52.596C13.9482 52.501 14.0546 52.4244 14.1728 52.3707L17.2299 50.9517Z" fill="black"/>
<path fill-rule="evenodd" clip-rule="evenodd" d="M41.0626 15.0576L43.8884 16.2C51.0779 13.2857 58.0043 10.0564 64.9881 6.88151C65.2252 6.77409 65.4952 6.7652 65.7388 6.85681C65.9824 6.94842 66.1797 7.13302 66.2872 7.37003C66.5213 7.86937 66.9415 8.25726 67.4579 8.45066C67.9743 8.64406 68.5459 8.6276 69.0504 8.40481C69.1752 8.34754 69.3105 8.31708 69.4478 8.31539C69.5851 8.31369 69.7212 8.3408 69.8473 8.39497C69.9734 8.44913 70.0868 8.52914 70.1801 8.62984C70.2734 8.73054 70.3446 8.84969 70.389 8.97959L80.1208 30.3863C80.1741 30.5037 80.2037 30.6304 80.2079 30.7592C80.2122 30.888 80.191 31.0164 80.1457 31.137C80.1003 31.2577 80.0316 31.3682 79.9435 31.4623C79.8554 31.5563 79.7497 31.6322 79.6323 31.6854C79.1319 31.9184 78.743 32.3387 78.5495 32.8557C78.3559 33.3727 78.3732 33.945 78.5975 34.4494C78.705 34.6865 78.7139 34.9565 78.6222 35.2001C78.5306 35.4437 78.346 35.641 78.109 35.7485C63.1807 42.5351 48.3863 49.2611 33.4616 56.0464C33.2245 56.1539 32.9545 56.1628 32.7108 56.0712C32.4672 55.9796 32.27 55.795 32.1625 55.5579C31.9285 55.0583 31.5081 54.6702 30.9915 54.4768C30.4748 54.2834 29.903 54.3 29.3984 54.5232C29.2738 54.5807 29.1385 54.6115 29.0012 54.6134C28.864 54.6153 28.7278 54.5883 28.6017 54.5342C28.4755 54.4801 28.3621 54.4 28.2689 54.2993C28.1757 54.1985 28.1047 54.0792 28.0606 53.9493L25.3271 47.9383C24.2419 47.6469 23.1762 47.2871 22.1364 46.8612L28.1485 60.0855C28.2595 60.3196 28.4574 60.5013 28.7001 60.592C28.9428 60.6827 29.2113 60.6754 29.4486 60.5715L84.1599 35.6972C84.394 35.5861 84.5757 35.3883 84.6664 35.1456C84.7571 34.9029 84.7497 34.6344 84.6459 34.397L70.3396 2.92887C69.971 2.2886 69.6617 2.1395 68.9148 2.39519L41.0626 15.0576Z" fill="#FFA800"/>
<path fill-rule="evenodd" clip-rule="evenodd" d="M47.0759 10.1679L41.2194 7.80024C39.2473 7.00301 37.2667 7.23608 35.3359 8.02734L9.49577 18.6196C10.3835 19.1456 11.276 19.6631 12.1782 20.1637L28.8363 13.3364C30.0142 12.8363 31.2701 12.5446 32.5479 12.4744C33.8061 12.4152 35.0621 12.6302 36.229 13.1044L38.5526 14.0437L47.0759 10.1679Z" fill="white"/>
<path fill-rule="evenodd" clip-rule="evenodd" d="M3.61245 25.7984C13.9149 31.8791 15.1148 31.2859 25.7721 26.0037C27.1425 25.3245 28.6623 24.5713 30.332 23.7639C30.4486 23.7059 30.5754 23.6715 30.7053 23.6629C30.8352 23.6542 30.9655 23.6714 31.0887 23.7135C31.2119 23.7556 31.3255 23.8217 31.423 23.908C31.5205 23.9943 31.5998 24.0991 31.6565 24.2163C31.7131 24.3335 31.746 24.4608 31.7531 24.5908C31.7602 24.7208 31.7414 24.8509 31.6979 24.9736C31.6543 25.0962 31.5869 25.2091 31.4994 25.3055C31.4119 25.4019 31.3062 25.48 31.1883 25.5353C29.4811 26.3598 27.9889 27.0994 26.6431 27.7664C22.4234 29.8578 19.5765 31.268 17.1163 31.8939L8.90006 34.5731C13.9757 37.0506 17.1423 38.4195 20.2727 38.5545C23.8283 38.7077 27.5689 37.2857 34.2815 34.1071C34.3986 34.0499 34.5258 34.0165 34.6559 34.0089C34.786 34.0013 34.9163 34.0196 35.0393 34.0627C35.1622 34.1058 35.2754 34.1729 35.3722 34.2602C35.4691 34.3474 35.5476 34.4529 35.6033 34.5708C35.659 34.6886 35.6907 34.8163 35.6967 34.9464C35.7026 35.0766 35.6826 35.2067 35.6379 35.3291C35.5932 35.4514 35.5247 35.5637 35.4362 35.6594C35.3477 35.7551 35.2412 35.8323 35.1227 35.8864C31.4548 37.6234 28.6238 38.8574 26.1904 39.6152L17.331 42.5024C22.0777 44.8191 25.1569 46.1678 28.0934 46.4418C31.4257 46.7525 34.7652 45.6897 40.4309 43.101C40.6679 42.9925 40.9384 42.9825 41.1827 43.0734C41.427 43.1643 41.6253 43.3485 41.7338 43.5856C41.8423 43.8226 41.8522 44.093 41.7613 44.3374C41.6704 44.5817 41.4862 44.7799 41.2492 44.8884C40.7665 45.1089 40.2992 45.3189 39.8472 45.5184C50.313 47.1715 56.9013 44.7486 60.4171 40.7056C62.8639 37.8912 63.8342 34.275 63.5909 30.7173C63.3459 27.1358 61.8776 23.6232 59.452 21.0434C55.3065 16.6343 49.5063 16.1336 44.2269 18.1733C43.9947 18.2626 43.7372 18.2602 43.5067 18.1666L35.4921 14.9268C33.5095 14.1253 31.5188 14.3595 29.5779 15.155L3.61245 25.7984ZM53.5334 19.9694C55.8067 20.8215 57.7762 22.3286 59.193 24.3001C60.6097 26.2716 61.41 28.6189 61.4927 31.0452C61.5754 33.4716 60.9367 35.8679 59.6574 37.9313C58.3782 39.9946 56.5158 41.6323 54.3058 42.6372C52.0958 43.6421 49.6375 43.9691 47.2417 43.5768C44.8458 43.1845 42.6201 42.0906 40.846 40.4334C39.0719 38.7762 37.829 36.6301 37.2746 34.2665C36.7201 31.903 36.879 29.4281 37.7312 27.1548C38.8759 24.108 41.1829 21.64 44.1457 20.2928C47.1085 18.9456 50.4849 18.8293 53.5334 19.9694Z" fill="white"/>
<path fill-rule="evenodd" clip-rule="evenodd" d="M51.6725 15.0914C55.3994 15.4618 58.5321 17.1997 60.8831 19.7003C63.6206 22.6119 65.2774 26.5657 65.5525 30.5892C65.786 34.0021 65.0294 37.4721 63.1014 40.4138L76.5137 34.3161C76.3813 33.5938 76.4475 32.849 76.7054 32.1614C76.9633 31.4738 77.4031 30.8692 77.9778 30.412L68.9197 10.4894C68.1973 10.6219 67.4525 10.5557 66.7649 10.2978C66.0772 10.04 65.4725 9.60018 65.0154 9.0254L51.6725 15.0914Z" fill="#FFA800"/>
<path fill-rule="evenodd" clip-rule="evenodd" d="M46.4088 48.0032C43.4869 48.0281 40.197 47.6837 36.5159 46.8906C33.6264 47.9738 30.7932 48.7182 27.6853 48.3782L29.5308 52.4375C30.2531 52.305 30.9979 52.3712 31.6855 52.629C32.3732 52.8869 32.9779 53.3267 33.435 53.9015L46.4088 48.0032Z" fill="#FFA800"/>
<ellipse cx="49.1626" cy="31.4537" rx="10.9609" ry="10.8711" transform="rotate(-1.0441 49.1626 31.4537)" fill="#FF0A00"/>
<path d="M46.4898 34.4826L45.7583 32.9423L49.4374 31.195L50.1689 32.7354L46.4898 34.4826ZM47.2637 36.1121L46.8646 35.2719L51.2312 33.1982L51.6302 34.0384L47.2637 36.1121ZM48.8707 37.0651L44.5783 28.0265L47.8755 26.4606C48.3168 26.2511 48.7517 26.1485 49.1803 26.153C49.6174 26.1535 50.0275 26.2395 50.4106 26.4112C50.8023 26.5788 51.1506 26.8086 51.4557 27.1006C51.7608 27.3926 52.002 27.7253 52.1793 28.0987C52.4212 28.6079 52.5363 29.1461 52.5248 29.7132C52.5218 30.2763 52.3809 30.8009 52.1021 31.2869C51.8232 31.773 51.391 32.155 50.8054 32.4331L49.1759 33.207L50.6148 36.2368L48.8707 37.0651ZM48.4444 31.6666L49.9593 30.9472C50.2224 30.8222 50.4106 30.66 50.5239 30.4606C50.6372 30.2612 50.6797 30.033 50.6513 29.7761C50.6273 29.5066 50.5468 29.2276 50.4098 28.939C50.2607 28.625 50.0828 28.3819 49.8762 28.2096C49.678 28.0333 49.4594 27.9343 49.2203 27.9126C48.9896 27.8869 48.747 27.9345 48.4924 28.0554L47.0539 28.7386L48.4444 31.6666Z" fill="white"/>
<path d="M108.526 9.52557H113.405C115.152 9.52557 116.7 9.89489 118.05 10.6335C119.406 11.3722 120.468 12.4126 121.235 13.755C122.009 15.0902 122.396 16.6598 122.396 18.4638C122.396 20.2109 122.009 21.7344 121.235 23.0341C120.468 24.3338 119.406 25.3459 118.05 26.0703C116.7 26.7876 115.152 27.1463 113.405 27.1463H108.526C106.771 27.1463 105.216 26.7912 103.859 26.081C102.503 25.3636 101.438 24.3551 100.663 23.0554C99.8963 21.7557 99.5128 20.2216 99.5128 18.4531C99.5128 16.6491 99.8999 15.0795 100.674 13.7443C101.455 12.402 102.524 11.3651 103.881 10.6335C105.237 9.89489 106.786 9.52557 108.526 9.52557ZM108.526 13.3821C107.588 13.3821 106.761 13.5703 106.043 13.9467C105.333 14.3161 104.779 14.8771 104.381 15.63C103.984 16.3828 103.785 17.3239 103.785 18.4531C103.785 19.5327 103.987 20.4311 104.392 21.1484C104.804 21.8658 105.365 22.402 106.075 22.7571C106.786 23.1122 107.602 23.2898 108.526 23.2898H113.437C114.367 23.2898 115.18 23.1087 115.876 22.7464C116.58 22.3842 117.123 21.8445 117.506 21.1271C117.897 20.4098 118.092 19.522 118.092 18.4638C118.092 17.3345 117.897 16.3935 117.506 15.6406C117.123 14.8878 116.58 14.3232 115.876 13.9467C115.18 13.5703 114.367 13.3821 113.437 13.3821H108.526ZM113.149 6.7983V29.8949H108.771V6.7983H113.149ZM130.045 23.0128L135.937 12.6364H140.411V29H136.086V18.5916L130.216 29H125.71V12.6364H130.045V23.0128ZM155.438 19.0071V22.576H146.894V19.0071H155.438ZM148.385 12.6364V29H144.049V12.6364H148.385ZM158.282 12.6364V29H153.978V12.6364H158.282ZM166.469 29.3089C165.425 29.3089 164.495 29.1278 163.678 28.7656C162.862 28.3963 162.215 27.853 161.739 27.1357C161.271 26.4112 161.036 25.5092 161.036 24.4297C161.036 23.5206 161.203 22.7571 161.537 22.1392C161.871 21.5213 162.325 21.0241 162.901 20.6477C163.476 20.2713 164.129 19.9872 164.861 19.7955C165.599 19.6037 166.374 19.4688 167.183 19.3906C168.135 19.2912 168.902 19.1989 169.484 19.1136C170.067 19.0213 170.489 18.8864 170.752 18.7088C171.015 18.5312 171.146 18.2685 171.146 17.9205V17.8565C171.146 17.1818 170.933 16.6598 170.507 16.2905C170.088 15.9212 169.491 15.7365 168.717 15.7365C167.901 15.7365 167.251 15.9176 166.768 16.2798C166.285 16.6349 165.965 17.0824 165.809 17.6222L161.612 17.2812C161.825 16.2869 162.244 15.4276 162.869 14.7031C163.494 13.9716 164.3 13.4105 165.287 13.0199C166.281 12.6222 167.432 12.4233 168.739 12.4233C169.648 12.4233 170.518 12.5298 171.349 12.7429C172.187 12.956 172.929 13.2862 173.575 13.7337C174.229 14.1811 174.744 14.7564 175.12 15.4595C175.496 16.1555 175.685 16.9901 175.685 17.9631V29H171.381V26.7308H171.253C170.99 27.2422 170.638 27.6932 170.198 28.0838C169.758 28.4673 169.229 28.7692 168.611 28.9893C167.993 29.2024 167.279 29.3089 166.469 29.3089ZM167.769 26.1768C168.437 26.1768 169.026 26.0455 169.538 25.7827C170.049 25.5128 170.45 25.1506 170.741 24.696C171.033 24.2415 171.178 23.7266 171.178 23.1513V21.4148C171.036 21.5071 170.841 21.5923 170.592 21.6705C170.351 21.7415 170.077 21.8089 169.772 21.8729C169.467 21.9297 169.161 21.983 168.856 22.0327C168.55 22.0753 168.273 22.1143 168.025 22.1499C167.492 22.228 167.027 22.3523 166.629 22.5227C166.232 22.6932 165.923 22.924 165.702 23.2152C165.482 23.4993 165.372 23.8544 165.372 24.2805C165.372 24.8984 165.596 25.3707 166.043 25.6974C166.498 26.017 167.073 26.1768 167.769 26.1768ZM190.594 19.0071V22.576H182.05V19.0071H190.594ZM183.542 12.6364V29H179.206V12.6364H183.542ZM193.439 12.6364V29H189.135V12.6364H193.439ZM204.353 29.3196C202.677 29.3196 201.235 28.9645 200.028 28.2543C198.827 27.5369 197.904 26.5426 197.258 25.2713C196.619 24 196.299 22.5369 196.299 20.8821C196.299 19.206 196.622 17.7358 197.268 16.4716C197.922 15.2003 198.849 14.2095 200.049 13.4993C201.249 12.782 202.677 12.4233 204.332 12.4233C205.759 12.4233 207.009 12.6825 208.082 13.201C209.154 13.7195 210.003 14.4474 210.628 15.3849C211.253 16.3224 211.597 17.4233 211.661 18.6875H207.379C207.258 17.8707 206.938 17.2138 206.42 16.7166C205.908 16.2124 205.237 15.9602 204.406 15.9602C203.703 15.9602 203.089 16.152 202.563 16.5355C202.045 16.9119 201.64 17.4624 201.349 18.1868C201.058 18.9112 200.912 19.7884 200.912 20.8182C200.912 21.8622 201.054 22.75 201.338 23.4815C201.629 24.2131 202.038 24.7706 202.563 25.1541C203.089 25.5376 203.703 25.7294 204.406 25.7294C204.925 25.7294 205.39 25.6229 205.802 25.4098C206.221 25.1967 206.565 24.8878 206.835 24.483C207.112 24.071 207.293 23.5774 207.379 23.0021H211.661C211.59 24.2521 211.249 25.353 210.638 26.3047C210.035 27.2493 209.2 27.9879 208.135 28.5206C207.07 29.0533 205.809 29.3196 204.353 29.3196ZM119.147 50.8203H114.481C114.396 50.2166 114.222 49.6804 113.959 49.2116C113.696 48.7358 113.359 48.331 112.947 47.9972C112.535 47.6634 112.059 47.4077 111.519 47.2301C110.987 47.0526 110.408 46.9638 109.783 46.9638C108.653 46.9638 107.67 47.2443 106.832 47.8054C105.994 48.3594 105.344 49.169 104.882 50.2344C104.42 51.2926 104.19 52.5781 104.19 54.0909C104.19 55.6463 104.42 56.9531 104.882 58.0114C105.351 59.0696 106.004 59.8686 106.842 60.4084C107.68 60.9482 108.65 61.218 109.751 61.218C110.369 61.218 110.94 61.1364 111.466 60.973C111.999 60.8097 112.471 60.5717 112.883 60.2592C113.295 59.9396 113.636 59.5526 113.906 59.098C114.183 58.6435 114.374 58.125 114.481 57.5426L119.147 57.5639C119.026 58.5653 118.724 59.5312 118.241 60.4616C117.766 61.3849 117.123 62.2124 116.313 62.9439C115.511 63.6683 114.552 64.2436 113.437 64.6697C112.329 65.0888 111.075 65.2983 109.676 65.2983C107.73 65.2983 105.99 64.858 104.456 63.9773C102.929 63.0966 101.722 61.8217 100.834 60.1527C99.9531 58.4837 99.5128 56.4631 99.5128 54.0909C99.5128 51.7116 99.9602 49.6875 100.855 48.0185C101.75 46.3494 102.964 45.0781 104.499 44.2045C106.033 43.3239 107.759 42.8835 109.676 42.8835C110.94 42.8835 112.112 43.0611 113.192 43.4162C114.278 43.7713 115.241 44.2898 116.079 44.9716C116.917 45.6463 117.599 46.4737 118.124 47.4538C118.657 48.4339 118.998 49.5561 119.147 50.8203ZM122.37 65V48.6364H129.348C131.365 48.6364 132.959 49.0199 134.131 49.7869C135.303 50.554 135.889 51.6442 135.889 53.0575C135.889 53.9453 135.559 54.6839 134.898 55.2734C134.238 55.8629 133.321 56.2607 132.15 56.4666C133.13 56.5376 133.964 56.7614 134.653 57.1378C135.349 57.5071 135.878 57.9865 136.24 58.576C136.61 59.1655 136.794 59.8189 136.794 60.5362C136.794 61.4666 136.546 62.2656 136.049 62.9332C135.559 63.6009 134.838 64.1122 133.886 64.4673C132.941 64.8224 131.787 65 130.424 65H122.37ZM126.599 61.6016H130.424C131.056 61.6016 131.549 61.4524 131.904 61.1541C132.267 60.8487 132.448 60.4332 132.448 59.9077C132.448 59.3253 132.267 58.8672 131.904 58.5334C131.549 58.1996 131.056 58.0327 130.424 58.0327H126.599V61.6016ZM126.599 55.3693H129.444C129.898 55.3693 130.285 55.3054 130.605 55.1776C130.931 55.0426 131.18 54.8509 131.35 54.6023C131.528 54.3537 131.617 54.0589 131.617 53.718C131.617 53.2138 131.414 52.8196 131.01 52.5355C130.605 52.2514 130.051 52.1094 129.348 52.1094H126.599V55.3693ZM147.048 65.3196C145.393 65.3196 143.962 64.968 142.755 64.2649C141.555 63.5547 140.628 62.5675 139.974 61.3033C139.321 60.032 138.994 58.5582 138.994 56.8821C138.994 55.1918 139.321 53.7145 139.974 52.4503C140.628 51.179 141.555 50.1918 142.755 49.4886C143.962 48.7784 145.393 48.4233 147.048 48.4233C148.703 48.4233 150.131 48.7784 151.331 49.4886C152.538 50.1918 153.469 51.179 154.122 52.4503C154.776 53.7145 155.102 55.1918 155.102 56.8821C155.102 58.5582 154.776 60.032 154.122 61.3033C153.469 62.5675 152.538 63.5547 151.331 64.2649C150.131 64.968 148.703 65.3196 147.048 65.3196ZM147.07 61.804C147.822 61.804 148.451 61.5909 148.955 61.1648C149.46 60.7315 149.839 60.142 150.095 59.3963C150.358 58.6506 150.489 57.8018 150.489 56.8501C150.489 55.8984 150.358 55.0497 150.095 54.304C149.839 53.5582 149.46 52.9687 148.955 52.5355C148.451 52.1023 147.822 51.8857 147.07 51.8857C146.31 51.8857 145.67 52.1023 145.152 52.5355C144.641 52.9687 144.254 53.5582 143.991 54.304C143.735 55.0497 143.607 55.8984 143.607 56.8501C143.607 57.8018 143.735 58.6506 143.991 59.3963C144.254 60.142 144.641 60.7315 145.152 61.1648C145.67 61.5909 146.31 61.804 147.07 61.804ZM171.658 42.6278L173.043 45.5895C172.581 45.973 172.07 46.2571 171.509 46.4418C170.947 46.6193 170.276 46.7365 169.495 46.7933C168.721 46.8501 167.776 46.8892 166.661 46.9105C165.397 46.9247 164.367 47.1271 163.572 47.5178C162.776 47.9084 162.173 48.5227 161.761 49.3608C161.349 50.1918 161.079 51.2784 160.951 52.6207H161.111C161.601 51.6193 162.29 50.8452 163.178 50.2983C164.072 49.7514 165.177 49.478 166.491 49.478C167.883 49.478 169.101 49.7834 170.145 50.3942C171.196 51.005 172.013 51.8821 172.595 53.0256C173.178 54.169 173.469 55.5398 173.469 57.1378C173.469 58.7997 173.142 60.245 172.489 61.4737C171.842 62.6953 170.923 63.6435 169.729 64.3182C168.536 64.9858 167.116 65.3196 165.468 65.3196C163.813 65.3196 162.386 64.9716 161.185 64.2756C159.992 63.5795 159.069 62.5533 158.415 61.1967C157.769 59.8402 157.446 58.1712 157.446 56.1896V54.8473C157.446 50.9055 158.213 47.983 159.747 46.0795C161.281 44.1761 163.536 43.2102 166.512 43.1818C167.322 43.1676 168.053 43.1641 168.707 43.1712C169.36 43.1783 169.932 43.1463 170.422 43.0753C170.919 43.0043 171.331 42.8551 171.658 42.6278ZM165.489 61.804C166.185 61.804 166.782 61.6229 167.279 61.2607C167.783 60.8984 168.17 60.38 168.44 59.7053C168.717 59.0305 168.856 58.2244 168.856 57.2869C168.856 56.3565 168.717 55.5682 168.44 54.9219C168.17 54.2685 167.783 53.7713 167.279 53.4304C166.775 53.0895 166.171 52.919 165.468 52.919C164.942 52.919 164.47 53.0149 164.051 53.2067C163.632 53.3984 163.273 53.6825 162.975 54.0589C162.684 54.4283 162.457 54.8864 162.293 55.4332C162.137 55.973 162.059 56.5909 162.059 57.2869C162.059 58.6861 162.361 59.7905 162.964 60.6001C163.575 61.4027 164.417 61.804 165.489 61.804ZM183.874 65.3196C182.22 65.3196 180.789 64.968 179.581 64.2649C178.381 63.5547 177.454 62.5675 176.801 61.3033C176.147 60.032 175.82 58.5582 175.82 56.8821C175.82 55.1918 176.147 53.7145 176.801 52.4503C177.454 51.179 178.381 50.1918 179.581 49.4886C180.789 48.7784 182.22 48.4233 183.874 48.4233C185.529 48.4233 186.957 48.7784 188.157 49.4886C189.365 50.1918 190.295 51.179 190.948 52.4503C191.602 53.7145 191.928 55.1918 191.928 56.8821C191.928 58.5582 191.602 60.032 190.948 61.3033C190.295 62.5675 189.365 63.5547 188.157 64.2649C186.957 64.968 185.529 65.3196 183.874 65.3196ZM183.896 61.804C184.649 61.804 185.277 61.5909 185.781 61.1648C186.286 60.7315 186.666 60.142 186.921 59.3963C187.184 58.6506 187.316 57.8018 187.316 56.8501C187.316 55.8984 187.184 55.0497 186.921 54.304C186.666 53.5582 186.286 52.9687 185.781 52.5355C185.277 52.1023 184.649 51.8857 183.896 51.8857C183.136 51.8857 182.497 52.1023 181.978 52.5355C181.467 52.9687 181.08 53.5582 180.817 54.304C180.561 55.0497 180.433 55.8984 180.433 56.8501C180.433 57.8018 180.561 58.6506 180.817 59.3963C181.08 60.142 181.467 60.7315 181.978 61.1648C182.497 61.5909 183.136 61.804 183.896 61.804ZM193.601 69.794V61.3991H194.858C195.22 61.1719 195.512 60.8097 195.732 60.3125C195.959 59.8153 196.144 59.2294 196.286 58.5547C196.435 57.88 196.548 57.152 196.627 56.3707C196.712 55.5824 196.786 54.7869 196.85 53.9844L197.276 48.6364H209.826V61.3991H212.362V69.794H208.036V65H198.033V69.794H193.601ZM199.375 61.3991H205.544V52.1307H201.133L200.963 53.9844C200.842 55.7315 200.668 57.2159 200.441 58.4375C200.213 59.652 199.858 60.6392 199.375 61.3991ZM219.673 65.3089C218.629 65.3089 217.698 65.1278 216.881 64.7656C216.065 64.3963 215.418 63.853 214.942 63.1357C214.474 62.4112 214.239 61.5092 214.239 60.4297C214.239 59.5206 214.406 58.7571 214.74 58.1392C215.074 57.5213 215.528 57.0241 216.104 56.6477C216.679 56.2713 217.332 55.9872 218.064 55.7955C218.803 55.6037 219.577 55.4688 220.386 55.3906C221.338 55.2912 222.105 55.1989 222.688 55.1136C223.27 55.0213 223.692 54.8864 223.955 54.7088C224.218 54.5312 224.349 54.2685 224.349 53.9205V53.8565C224.349 53.1818 224.136 52.6598 223.71 52.2905C223.291 51.9212 222.695 51.7365 221.92 51.7365C221.104 51.7365 220.454 51.9176 219.971 52.2798C219.488 52.6349 219.168 53.0824 219.012 53.6222L214.815 53.2812C215.028 52.2869 215.447 51.4276 216.072 50.7031C216.697 49.9716 217.503 49.4105 218.49 49.0199C219.484 48.6222 220.635 48.4233 221.942 48.4233C222.851 48.4233 223.721 48.5298 224.552 48.7429C225.39 48.956 226.132 49.2862 226.778 49.7337C227.432 50.1811 227.947 50.7564 228.323 51.4595C228.7 52.1555 228.888 52.9901 228.888 53.9631V65H224.584V62.7308H224.456C224.193 63.2422 223.842 63.6932 223.401 64.0838C222.961 64.4673 222.432 64.7692 221.814 64.9893C221.196 65.2024 220.482 65.3089 219.673 65.3089ZM220.972 62.1768C221.64 62.1768 222.229 62.0455 222.741 61.7827C223.252 61.5128 223.653 61.1506 223.945 60.696C224.236 60.2415 224.381 59.7266 224.381 59.1513V57.4148C224.239 57.5071 224.044 57.5923 223.795 57.6705C223.554 57.7415 223.281 57.8089 222.975 57.8729C222.67 57.9297 222.364 57.983 222.059 58.0327C221.754 58.0753 221.477 58.1143 221.228 58.1499C220.695 58.228 220.23 58.3523 219.832 58.5227C219.435 58.6932 219.126 58.924 218.906 59.2152C218.685 59.4993 218.575 59.8544 218.575 60.2805C218.575 60.8984 218.799 61.3707 219.246 61.6974C219.701 62.017 220.276 62.1768 220.972 62.1768Z" fill="#2D2D2D"/>
</svg>
