<svg width="10" height="10" viewBox="0 0 10 10" fill="none" xmlns="http://www.w3.org/2000/svg">
<g clip-path="url(#clip0_217_535)">
<path d="M8.36133 1.2275C8.52914 1.05487 8.75566 0.957712 8.99194 0.957035C9.22821 0.956358 9.45525 1.05222 9.62396 1.22389C9.79268 1.39556 9.88952 1.62925 9.89355 1.87444C9.89757 2.11963 9.80847 2.35661 9.64548 2.53415L4.859 8.74384C4.77674 8.8358 4.67745 8.9096 4.56708 8.96082C4.45671 9.01205 4.33752 9.03965 4.21663 9.04197C4.09575 9.0443 3.97565 9.0213 3.86353 8.97435C3.7514 8.9274 3.64955 8.85746 3.56406 8.76873L0.392661 5.47598C0.304309 5.39053 0.233445 5.28749 0.184295 5.17301C0.135144 5.05852 0.108716 4.93493 0.106585 4.80961C0.104455 4.6843 0.126667 4.55982 0.171895 4.4436C0.217123 4.32739 0.284441 4.22182 0.369834 4.13319C0.455226 4.04457 0.556944 3.9747 0.668918 3.92776C0.780892 3.88082 0.900829 3.85776 1.02157 3.85997C1.14232 3.86218 1.2614 3.88961 1.3717 3.94063C1.48201 3.99164 1.58129 4.06519 1.66362 4.15688L4.17436 6.76147L8.33855 1.25488C8.34598 1.24524 8.35279 1.2361 8.36133 1.2275Z" fill="black"/>
</g>
<defs>
<clipPath id="clip0_217_535">
<rect width="10" height="10" fill="black"/>
</clipPath>
</defs>
</svg>
