<svg width="28" height="28" viewBox="0 0 28 28" fill="none" xmlns="http://www.w3.org/2000/svg">
<path d="M21.7767 27.1611C20.5958 27.1611 18.937 26.7341 16.453 25.3466C13.4324 23.653 11.0961 22.0895 8.09181 19.0937C5.19525 16.1995 3.78569 14.3257 1.8129 10.7365C-0.415778 6.68405 -0.0358618 4.55983 0.388822 3.65196C0.89457 2.56687 1.64109 1.91787 2.60601 1.27371C3.15407 0.914691 3.73406 0.606934 4.33862 0.35434C4.39912 0.328332 4.45538 0.303533 4.50559 0.281154C4.80505 0.146273 5.25877 -0.05756 5.83348 0.160185C6.21703 0.304138 6.55944 0.598698 7.09544 1.12794C8.19465 2.21182 9.69677 4.62576 10.2509 5.81126C10.623 6.61026 10.8692 7.13769 10.8698 7.72923C10.8698 8.42178 10.5213 8.95586 10.0985 9.53227C10.0192 9.64054 9.94057 9.74397 9.86435 9.84437C9.40397 10.4492 9.30294 10.624 9.36949 10.9361C9.5044 11.5633 10.5104 13.4305 12.1638 15.0799C13.8172 16.7293 15.6308 17.6717 16.2606 17.806C16.5861 17.8755 16.7645 17.7703 17.3889 17.2937C17.4784 17.2253 17.5704 17.1545 17.6665 17.0838C18.3114 16.6041 18.8208 16.2648 19.4972 16.2648H19.5008C20.0894 16.2648 20.5934 16.5201 21.4282 16.941C22.5171 17.4902 25.0041 18.9727 26.0949 20.0729C26.6254 20.6076 26.9213 20.9487 27.0658 21.3316C27.2836 21.908 27.0786 22.3598 26.9449 22.6623C26.9225 22.7125 26.8977 22.7675 26.8717 22.8286C26.617 23.432 26.3074 24.0106 25.9467 24.5573C25.3036 25.519 24.652 26.2635 23.5643 26.7698C23.0058 27.0339 22.3945 27.1677 21.7767 27.1611Z" fill="white"/>
</svg>
